<?xml version="1.0" ?><!DOCTYPE svg  PUBLIC '-//W3C//DTD SVG 1.1//EN'  'http://www.w3.org/Graphics/SVG/1.1/DTD/svg11.dtd'><svg height="8.4666mm" style="shape-rendering:geometricPrecision; text-rendering:geometricPrecision; image-rendering:optimizeQuality; fill-rule:evenodd; clip-rule:evenodd" version="1.1" viewBox="0 0 846.66 846.66" width="8.4666mm" xml:space="preserve" xmlns="http://www.w3.org/2000/svg" xmlns:xlink="http://www.w3.org/1999/xlink"><defs><style type="text/css">
   <![CDATA[
    .fil0 {fill:black;fill-rule:nonzero}
   ]]>
  </style></defs><g id="Layer_x0020_1"><path class="fil0" d="M30.8 746.53c-27.19,0 -27.19,-41.34 0,-41.34l124.63 0 0 -135.48c0,-27.18 41.34,-27.18 41.34,0l0 135.48 123.48 0 0 -260.18c0,-27.18 41.34,-27.18 41.34,0l0 260.18 123.48 0 0 -230.9c0,-27.18 41.34,-27.18 41.34,0l0 230.9 123.48 0 0 -534.51c0,-27.19 41.34,-27.19 41.34,0l0 534.51 124.64 0c27.18,0 27.18,41.34 0,41.34 -261.69,0 -523.38,0 -785.07,0zm549.82 -632.99l20.16 49.38c10.2,25.17 -28.07,40.67 -38.27,15.5l-2.9 -7.12 -97.93 200.39c-5.91,12.11 -21.92,15.46 -32.16,6.4l-110.2 -97.24 -148.03 211.74c-15.49,22.16 -49.24,-1.41 -33.75,-23.58l161.25 -230.63c7.06,-10.11 21.31,-11.75 30.51,-3.63l107.17 94.56 85.14 -174.32 -7.54 2.38c-25.92,8.17 -38.34,-31.23 -12.43,-39.4l53.44 -16.88c10.47,-3.29 21.69,2.16 25.54,12.45z"/></g></svg>